<svg height='100px' width='100px'  fill="#000000" xmlns="http://www.w3.org/2000/svg" viewBox="0 0 100 100" x="0px" y="0px"><g data-name="Layer 2"><path d="M74.25,54h-14a1,1,0,0,0,0,2h14a1,1,0,0,0,0-2Z"></path><path d="M44.25,89H29.75a1,1,0,0,0,0,2h14.5a1,1,0,0,0,0-2Z"></path><path d="M22.75,77.5h-7.5a1,1,0,0,0,0,2h7.5a1,1,0,0,0,0-2Z"></path><path d="M43.25,54.5h-16a1,1,0,0,0,0,2h16a1,1,0,0,0,0-2Z"></path><path d="M90.25,58.5h-12a1,1,0,0,0,0,2h12a1,1,0,0,0,0-2Z"></path><path d="M17.25,70.63a1,1,0,0,0-1-1H7.76a1,1,0,0,0,0,2h8.49A1,1,0,0,0,17.25,70.63Z"></path><path d="M56.75,63a1,1,0,0,0,0-2h-11a1,1,0,0,0,0,2Z"></path><path d="M12,56a1,1,0,0,0-1-1H3a1,1,0,1,0,0,2h8A1,1,0,0,0,12,56Z"></path><path d="M65.75,66a1,1,0,0,0,1,1h14.5a1,1,0,0,0,0-2H66.75A1,1,0,0,0,65.75,66Z"></path><path d="M33.75,77a1,1,0,0,0,0,2h21a1,1,0,0,0,0-2Z"></path><path d="M41,70a1,1,0,0,0,1,1H56.5a1,1,0,0,0,0-2H42A1,1,0,0,0,41,70Z"></path><path d="M89.25,73h-22a1,1,0,0,0,0,2h22a1,1,0,0,0,0-2Z"></path><path d="M79.48,83.5H50a1,1,0,0,0,0,2H79.48a1,1,0,1,0,0-2Z"></path><path d="M13.25,61.5a1,1,0,0,0,1,1h14a1,1,0,0,0,0-2h-14A1,1,0,0,0,13.25,61.5Z"></path><path d="M32.75,68a1,1,0,0,0-1-1h-6.5a1,1,0,0,0,0,2h6.5A1,1,0,0,0,32.75,68Z"></path><path d="M23.64,27.1c7.68,2.1,16.36,4.48,17.57,9.39A130,130,0,0,0,31,45.79a1,1,0,0,0,0,1.42,1,1,0,0,0,.71.29,1,1,0,0,0,.71-.29c9.09-9.1,15.25-13.71,18.29-13.71,6.5,0,12.1,4.88,16.59,8.8a37.27,37.27,0,0,0,5.93,4.58,1,1,0,1,0,1-1.76,36.56,36.56,0,0,1-5.57-4.33,51.69,51.69,0,0,0-9.48-7A13.38,13.38,0,0,0,61.7,31c1.17-1.56,2-2.5,3-2.5,3.13,0,7.4-2.29,11.5-4.63.46-.27,1-.61,1.69-1a65.1,65.1,0,0,1,7.93-4.27,1,1,0,1,0-.78-1.84c-1.36.58-2.69,1.25-4,1.94l-9.5-6.18-.23-.11-3-1a1,1,0,0,0-.78.07L59.13,16a.93.93,0,0,0-.39.37l-1.35,2.25-.55-.4a1,1,0,0,0-.35-.16l-3.76-.94L43.92,9.25l-.11-.06a1.1,1.1,0,0,0-.14-.09A.9.9,0,0,0,43.45,9l-.11,0h0a.9.9,0,0,0-.23,0l-.15,0-.1.06a.76.76,0,0,0-.23.13l-8.87,7.39-2.35.94a.94.94,0,0,0-.22.12l-9.29,6.85c-4.07-1.14-7.71-2.29-9.65-3.81a1,1,0,0,0-1.41.17A1,1,0,0,0,11,22.3C13.6,24.36,18.48,25.69,23.64,27.1Zm36.67-9.49,7.14-3.79v3.66a1,1,0,0,0,.06.34l1.8,5a1,1,0,0,0,.94.66,1,1,0,0,0,.34-.06,1,1,0,0,0,.6-1.28l-1.74-4.85V13.86l1.21.4,8.52,5.54c-.82.47-1.59.94-2.27,1.35l-1.65,1a48.73,48.73,0,0,1-7.76,3.81L59,19.77ZM52,19l3.81,1,9,6.57h-.11c-2.17,0-3.43,1.68-4.65,3.3a8.94,8.94,0,0,1-2.8,2.81.8.8,0,0,0-.23.18,16.79,16.79,0,0,0-6.32-1.29l-.26,0L50.75,24a1,1,0,0,0-.4-.83L43.5,18l.56-6,7.53,6.69A1.06,1.06,0,0,0,52,19Zm-19.77.41,2.38-.95a1.2,1.2,0,0,0,.27-.16L42,12.32l-.57,6.07a1,1,0,0,0,.39.89l6.88,5.2L48.47,32a23.15,23.15,0,0,0-5.56,3.22c-2-5.42-10.42-7.74-18.58-10Z"></path><path d="M78.89,29c-4.73-.67-10.23,4.67-10.85,5.28a1,1,0,0,0,0,1.42,1,1,0,0,0,.71.29,1,1,0,0,0,.71-.29c1.82-1.83,6.07-5.17,9.15-4.72a12.86,12.86,0,0,1,4.6,2,18.76,18.76,0,0,0,5.3,2.46A1,1,0,1,0,89,33.53a17.43,17.43,0,0,1-4.75-2.23A14.45,14.45,0,0,0,78.89,29Z"></path><path d="M8.49,32.47c3.28-.82,7.64,2.6,11.14,5.35,2.46,1.92,4.4,3.44,6,3.67h.14a1,1,0,0,0,.14-2c-1.05-.15-3.07-1.74-5-3.27C17,33.23,12.23,29.47,8,30.53a1,1,0,0,0,.48,1.94Z"></path><path d="M97.78,49.5H2.22a1,1,0,1,0,0,2H97.78a1,1,0,0,0,0-2Z"></path></g></svg>